<svg xmlns="http://www.w3.org/2000/svg" viewBox="0 0 22 20" width="22" height="20">
	<style>
		tspan { white-space:pre }
		.shp0 { fill: #334752 } 
	</style>
	<g id="Layer 1">
		<g id="&lt;Group&gt;">
			<g id="&lt;Group&gt;">
				<path id="&lt;Path&gt;" class="shp0" d="M21.09 8.3L17.87 8.3L17.87 5.08C17.87 4.84 17.67 4.64 17.42 4.64L16.51 4.64C16.26 4.64 16.06 4.84 16.06 5.08L16.06 8.3L12.84 8.3C12.59 8.3 12.39 8.5 12.39 8.75L12.39 9.67C12.39 9.91 12.59 10.11 12.84 10.11L16.06 10.11L16.06 13.34C16.06 13.58 16.26 13.78 16.51 13.78L17.42 13.78C17.67 13.78 17.87 13.58 17.87 13.34L17.87 10.11L21.09 10.11C21.34 10.11 21.54 9.91 21.54 9.67L21.54 8.75C21.54 8.5 21.34 8.3 21.09 8.3Z" />
				<path id="&lt;Compound Path&gt;" fill-rule="evenodd" class="shp0" d="M12.43 15.17C12.43 17.08 10.98 18.74 8.73 19.39C8.01 19.6 7.23 19.7 6.42 19.7C5.51 19.7 4.63 19.6 3.82 19.39C2.23 18.99 1.06 18.24 0.52 17.27C0.29 16.85 0.17 16.4 0.17 15.93C0.17 15.45 0.28 14.96 0.51 14.49C1.37 12.64 3.65 11.4 6.18 11.4C6.21 11.4 6.23 11.4 6.25 11.4C6.05 11.04 5.95 10.67 5.95 10.27C5.95 10.07 5.97 9.88 6.03 9.67C3.38 9.61 1.39 7.67 1.39 5.11C1.39 3.3 2.84 1.54 4.9 0.83C5.52 0.62 6.15 0.51 6.77 0.51L12.44 0.51C12.63 0.51 12.8 0.63 12.86 0.82C12.92 1 12.86 1.2 12.7 1.31L11.43 2.23C11.36 2.29 11.27 2.32 11.17 2.32L10.72 2.32C11.3 3.02 11.65 4.02 11.65 5.15C11.65 6.39 11.02 7.56 9.88 8.46C8.99 9.14 8.96 9.33 8.96 9.73C8.97 9.94 9.59 10.65 10.26 11.13C11.84 12.25 12.43 13.34 12.43 15.17ZM6.4 17.91C8.85 17.91 10.08 17.06 10.08 15.41C10.08 15.25 10.07 15.09 10.03 14.92C9.86 14.28 9.27 13.87 8.38 13.27C8.25 13.18 8.13 13.1 7.99 13C7.61 12.89 7.2 12.83 6.78 12.82L6.73 12.82C4.8 12.82 3.11 13.99 3.11 15.32C3.11 16.77 4.55 17.91 6.4 17.91ZM4.32 5.04C4.54 6.72 5.76 8.17 6.99 8.21L7.01 8.21C7.47 8.21 7.86 8.02 8.16 7.68C8.64 7.14 8.85 6.25 8.72 5.32C8.5 3.64 7.3 2.24 6.05 2.2L6 2.2C5.56 2.2 5.16 2.38 4.86 2.73C4.39 3.26 4.19 4.1 4.32 5.04Z" />
			</g>
		</g>
	</g>
</svg>