<svg xmlns="http://www.w3.org/2000/svg" viewBox="0 0 38 39" width="38" height="39">
	<style>
		tspan { white-space:pre }
		.shp0 { fill: #10cab7 } 
		.shp1 { fill: #2b555f } 
	</style>
	<g id="Layer 1">
		<g id="&lt;Group&gt;">
			<path id="&lt;Path&gt;" class="shp0" d="M33.55 33.35L33.55 33.35L33.55 33.35L32.46 33.35L31.16 33.35L31.16 32.05C31.16 30.26 29.69 28.79 27.9 28.79L10.51 28.79C8.72 28.79 7.25 30.26 7.25 32.05L7.24 33.35L5.94 33.35L4.86 33.35C3.06 33.35 1.6 31.89 1.59 30.1L1.59 20.37C1.6 18.57 3.06 17.11 4.85 17.1L33.55 17.1C35.35 17.11 36.81 18.57 36.81 20.36L36.81 30.09C36.81 31.89 35.35 33.35 33.55 33.35Z" />
			<path id="&lt;Compound Path&gt;" fill-rule="evenodd" class="shp1" d="M38.12 20.37L38.12 30.09C38.11 32.61 36.07 34.65 33.55 34.66L32.43 34.66C32.16 36.92 30.23 38.67 27.9 38.68L10.51 38.68C8.17 38.67 6.25 36.92 5.98 34.66L4.86 34.66C2.34 34.65 0.29 32.61 0.29 30.09L0.29 20.37C0.29 17.84 2.34 15.8 4.86 15.8L8.23 15.8L8.23 5.42C8.23 2.9 10.27 0.86 12.79 0.85L25.62 0.85C28.13 0.86 30.18 2.9 30.18 5.42L30.18 15.8L33.55 15.8C36.07 15.8 38.11 17.84 38.12 20.37ZM10.83 15.8L27.57 15.8L27.57 5.42C27.57 4.35 26.68 3.47 25.62 3.46L12.79 3.46C11.72 3.47 10.83 4.35 10.83 5.42L10.83 15.8ZM29.77 34.66C29.82 34.48 29.85 34.3 29.85 34.11C29.85 34.11 29.85 32.05 29.85 32.05C29.85 30.98 28.97 30.1 27.9 30.09L10.51 30.09C9.44 30.1 8.55 30.98 8.55 32.05C8.55 32.05 8.55 34.11 8.55 34.11C8.55 34.3 8.59 34.48 8.64 34.66C8.88 35.46 9.63 36.07 10.51 36.07L27.9 36.07C28.78 36.07 29.52 35.46 29.77 34.66ZM35.51 20.37C35.51 19.3 34.62 18.41 33.55 18.41L4.86 18.41C3.79 18.41 2.9 19.3 2.9 20.37L2.9 30.09C2.9 31.16 3.79 32.04 4.86 32.05L5.94 32.05C5.95 29.53 7.99 27.49 10.51 27.48L27.9 27.48C30.42 27.49 32.46 29.53 32.46 32.05L33.55 32.05C34.62 32.04 35.51 31.16 35.51 30.09L35.51 20.37Z" />
		</g>
	</g>
</svg>