<svg xmlns="http://www.w3.org/2000/svg" viewBox="0 0 40 37" width="40" height="37">
	<style>
		tspan { white-space:pre }
		.shp0 { fill: #10cab7 } 
		.shp1 { fill: #2b555f } 
	</style>
	<g id="Layer 1">
		<g id="&lt;Group&gt;">
			<path id="&lt;Path&gt;" class="shp0" d="M34.72 25.4L34.72 25.4L34.72 25.4L5.37 25.4C4.07 25.4 2.9 24.62 2.38 23.43C2.2 23.02 2.11 22.58 2.11 22.14L2.11 4.96C2.11 3.17 3.57 1.71 5.37 1.7L34.72 1.7C36.51 1.71 37.98 3.17 37.98 4.96L37.98 22.14C37.98 23.93 36.51 25.4 34.72 25.4Z" />
			<path id="&lt;Compound Path&gt;" fill-rule="evenodd" class="shp1" d="M39.28 4.96L39.28 22.14C39.28 24.66 37.24 26.7 34.72 26.7L20.23 26.7C19.13 27.43 18.01 28.24 17.26 28.85L8.23 36.24C7.59 36.76 6.89 37.12 6.06 37.14C6.04 37.14 6.02 37.14 6.01 37.14C5.27 37.14 4.51 36.71 4.13 36.1C3.72 35.49 3.58 34.79 3.58 34.04L3.58 26.33C1.95 25.63 0.81 24.02 0.8 22.14L0.8 4.96C0.81 2.44 2.85 0.4 5.37 0.4L34.72 0.4C37.24 0.4 39.28 2.44 39.28 4.96ZM15.78 26.7L6.19 26.7L6.19 34.04C6.18 34.22 6.2 34.37 6.22 34.46C6.31 34.42 6.44 34.34 6.58 34.23L15.61 26.84C15.66 26.79 15.72 26.75 15.78 26.7ZM36.67 22.14L36.68 4.96C36.67 3.9 35.79 3.01 34.72 3.01L5.37 3.01C4.3 3.01 3.41 3.9 3.41 4.96L3.41 22.14C3.41 22.41 3.47 22.67 3.58 22.9C3.88 23.6 4.57 24.09 5.37 24.1L34.72 24.1C35.79 24.09 36.67 23.21 36.68 22.14L36.67 22.14Z" />
		</g>
	</g>
</svg>