<svg xmlns="http://www.w3.org/2000/svg" viewBox="0 0 42 32" width="42" height="32">
	<style>
		tspan { white-space:pre }
		.shp0 { fill: #10cab7 } 
		.shp1 { fill: #2b555f } 
	</style>
	<g id="Layer 1">
		<g id="&lt;Group&gt;">
			<path id="&lt;Path&gt;" class="shp0" d="M36.96 23.54L36.96 23.54L36.96 23.54L4.67 23.54C2.88 23.53 1.42 22.07 1.41 20.28L1.41 5.06C1.42 3.26 2.88 1.8 4.67 1.8L36.96 1.8C38.75 1.8 40.21 3.26 40.22 5.06L40.22 20.28C40.21 22.07 38.75 23.53 36.96 23.54Z" />
			<path id="&lt;Compound Path&gt;" fill-rule="evenodd" class="shp1" d="M41.52 5.06L41.52 20.27C41.52 22.8 39.48 24.83 36.96 24.84L24.05 24.84L24.05 28.97L27.8 28.97C28.16 28.97 28.45 29.26 28.45 29.62L28.45 30.93C28.45 31.29 28.16 31.58 27.8 31.58L13.83 31.58C13.47 31.58 13.18 31.29 13.18 30.93L13.18 29.62C13.18 29.26 13.47 28.97 13.83 28.97L17.58 28.97L17.58 24.84L4.67 24.84C2.15 24.83 0.12 22.8 0.11 20.27L0.11 5.06C0.12 2.54 2.15 0.5 4.67 0.49L36.96 0.49C39.48 0.5 41.52 2.54 41.52 5.06ZM21.44 24.84L20.19 24.84L20.19 28.97L21.44 28.97L21.44 24.84ZM38.91 5.06C38.91 3.99 38.02 3.1 36.96 3.1L4.67 3.1C3.61 3.1 2.72 3.99 2.72 5.06L2.72 20.27C2.72 21.34 3.61 22.23 4.67 22.23L36.96 22.23C38.02 22.23 38.91 21.34 38.91 20.27L38.91 5.06Z" />
		</g>
	</g>
</svg>