<svg xmlns="http://www.w3.org/2000/svg" viewBox="0 0 21 18" width="21" height="18">
	<style>
		tspan { white-space:pre }
		.shp0 { fill: #334752 } 
	</style>
	<g id="Layer 1">
		<g id="&lt;Group&gt;">
			<path id="&lt;Path&gt;" class="shp0" d="M20.84 2.55C20.06 2.9 19.23 3.13 18.35 3.23C19.24 2.7 19.93 1.85 20.25 0.83C19.42 1.33 18.49 1.69 17.5 1.89C16.71 1.04 15.58 0.52 14.34 0.52C11.94 0.52 10 2.46 10 4.86C10 5.19 10.04 5.52 10.11 5.84C6.51 5.66 3.32 3.94 1.18 1.31C0.8 1.95 0.59 2.7 0.59 3.49C0.59 5 1.36 6.32 2.52 7.1C1.81 7.08 1.14 6.88 0.55 6.56C0.55 6.58 0.55 6.6 0.55 6.61C0.55 8.71 2.05 10.46 4.03 10.86C3.67 10.96 3.29 11.02 2.89 11.02C2.61 11.02 2.34 10.99 2.08 10.94C2.63 12.66 4.23 13.91 6.12 13.95C4.64 15.11 2.77 15.8 0.74 15.8C0.39 15.8 0.04 15.78 -0.29 15.75C1.62 16.97 3.9 17.69 6.35 17.69C14.33 17.69 18.69 11.09 18.69 5.36C18.69 5.17 18.68 4.98 18.67 4.8C19.52 4.18 20.26 3.42 20.84 2.55Z" />
		</g>
	</g>
</svg>