<svg xmlns="http://www.w3.org/2000/svg" viewBox="0 0 77 93" width="77" height="93">
	<style>
		tspan { white-space:pre }
		.shp0 { fill: #10cab7 } 
	</style>
	<g id="Work">
		<g id="Work 2">
			<path id="Composite Path" class="shp0" d="M48.32 15.51C49.81 14.02 49.81 11.61 48.32 10.12C46.83 8.64 44.42 8.64 42.93 10.12C41.44 11.61 41.44 14.02 42.93 15.51C44.42 17 46.83 17 48.32 15.51ZM36.99 12.35C39.14 10.21 39.14 6.75 36.99 4.61C34.86 2.47 31.39 2.47 29.25 4.61C27.11 6.75 27.11 10.21 29.25 12.35C31.39 14.49 34.86 14.49 36.99 12.35ZM67.97 72.7L51.93 45.16C50.98 43.62 50.02 40.05 50.06 38.24L50.06 25.59L51.76 25.59C52.54 25.59 53.19 24.95 53.19 24.16L53.19 22.74C53.19 21.95 52.54 21.31 51.76 21.31L26.04 21.31C25.26 21.31 24.61 21.95 24.61 22.74L24.61 24.16C24.61 24.95 25.26 25.59 26.04 25.59L27.29 25.59L27.29 38.24C27.33 40.05 26.37 43.62 25.42 45.16L9.38 72.7C8.89 73.54 8.58 74.45 8.57 75.43C8.55 76.6 9.12 77.84 10.07 78.58C11.01 79.33 12.17 79.62 13.36 79.62L63.99 79.62C65.17 79.62 66.33 79.33 67.28 78.58C68.23 77.84 68.79 76.6 68.77 75.43C68.77 74.45 68.46 73.54 67.97 72.7Z" />
		</g>
	</g>
</svg>