<svg xmlns="http://www.w3.org/2000/svg" viewBox="0 0 22 22" width="22" height="22">
	<style>
		tspan { white-space:pre }
		.shp0 { fill: #334752 } 
	</style>
	<g id="Layer 1">
		<g id="&lt;Group&gt;">
			<g id="&lt;Group&gt;">
				<path id="&lt;Compound Path&gt;" fill-rule="evenodd" class="shp0" d="M21.24 11.1C21.24 11.83 21.17 12.54 21.02 13.24C20.89 13.92 20.68 14.59 20.41 15.23C20.14 15.86 19.81 16.47 19.43 17.04C19.05 17.6 18.61 18.13 18.14 18.6C17.65 19.09 17.13 19.52 16.57 19.89C16 20.28 15.39 20.61 14.76 20.88C14.13 21.15 13.45 21.35 12.77 21.49C12.07 21.64 11.35 21.71 10.64 21.71C9.92 21.71 9.2 21.64 8.5 21.49C7.82 21.35 7.15 21.15 6.51 20.88C5.88 20.61 5.27 20.28 4.71 19.89C4.15 19.52 3.62 19.09 3.14 18.6C2.66 18.13 2.22 17.6 1.84 17.04C1.46 16.47 1.13 15.86 0.87 15.23C0.6 14.59 0.39 13.92 0.25 13.24C0.11 12.54 0.03 11.83 0.03 11.1C0.03 10.39 0.11 9.67 0.25 8.97C0.39 8.29 0.6 7.62 0.87 6.98C1.13 6.35 1.46 5.74 1.84 5.18C2.22 4.61 2.66 4.09 3.14 3.61C3.62 3.13 4.15 2.69 4.71 2.31C5.27 1.93 5.88 1.6 6.51 1.33C7.15 1.06 7.82 0.86 8.5 0.72C9.2 0.57 9.92 0.5 10.64 0.5C11.35 0.5 12.07 0.57 12.77 0.72C13.45 0.86 14.13 1.06 14.76 1.33C15.39 1.6 16 1.93 16.57 2.31C17.13 2.69 17.65 3.13 18.14 3.61C18.61 4.09 19.05 4.61 19.43 5.18C19.81 5.74 20.14 6.35 20.41 6.98C20.68 7.62 20.89 8.29 21.02 8.97C21.17 9.67 21.24 10.39 21.24 11.1ZM17.63 5.35C17.61 5.38 16.16 7.48 12.58 8.94C12.79 9.37 13 9.81 13.19 10.25C13.25 10.41 13.32 10.56 13.38 10.72C16.49 10.33 19.56 10.99 19.69 11.01C19.67 8.87 18.9 6.9 17.63 5.35ZM10.64 2.05C9.9 2.05 9.19 2.14 8.5 2.31C8.64 2.48 10.34 4.74 11.89 7.59C15.3 6.31 16.59 4.34 16.62 4.31C15.02 2.91 12.93 2.05 10.64 2.05ZM8.45 2.32C8.46 2.32 8.46 2.32 8.47 2.31L8.47 2.31C8.46 2.31 8.46 2.32 8.45 2.32ZM8.44 2.32C8.44 2.32 8.45 2.32 8.45 2.32C8.45 2.32 8.44 2.32 8.44 2.32ZM1.77 9.24C2.01 9.24 5.79 9.29 10.13 8.13C8.57 5.35 6.89 3.08 6.77 2.92C4.25 4.11 2.36 6.44 1.77 9.24ZM3.9 17.16L3.9 17.15C5.55 14.22 8 12.23 11.26 11.18C11.38 11.14 11.5 11.1 11.62 11.07C11.39 10.55 11.14 10.04 10.88 9.53C6.22 10.92 1.75 10.82 1.59 10.82C1.58 10.91 1.58 11.01 1.58 11.1C1.58 13.43 2.46 15.55 3.9 17.16ZM14.17 19.45C14.04 18.65 13.51 15.88 12.24 12.57C12.22 12.57 12.2 12.58 12.18 12.59C8.6 13.84 6.23 15.72 5.07 18.25C5.03 18.22 4.99 18.19 4.94 18.15C6.5 19.41 8.48 20.16 10.64 20.16C11.89 20.16 13.08 19.91 14.17 19.45ZM4.87 18.09C4.89 18.11 4.92 18.13 4.94 18.15C4.92 18.13 4.89 18.11 4.87 18.09ZM19.58 12.54C19.39 12.48 16.86 11.68 13.93 12.15C15.12 15.41 15.6 18.07 15.7 18.61C17.73 17.24 19.17 15.07 19.58 12.54Z" />
			</g>
		</g>
	</g>
</svg>