<svg xmlns="http://www.w3.org/2000/svg" viewBox="0 0 39 39" width="39" height="39">
	<style>
		tspan { white-space:pre }
		.shp0 { fill: #10cab7 } 
		.shp1 { fill: #2b555f } 
	</style>
	<g id="Layer 1">
		<g id="&lt;Group&gt;">
			<path id="&lt;Path&gt;" class="shp0" d="M33.94 37.37L33.94 37.37L33.94 37.37L5.24 37.37C3.45 37.37 1.99 35.91 1.98 34.12L1.98 14.76C1.99 12.97 3.46 11.51 5.24 11.51L33.94 11.51C35.73 11.51 37.2 12.97 37.2 14.77L37.2 34.11C37.2 35.91 35.73 37.37 33.94 37.37Z" />
			<g id="&lt;Group&gt;">
				<path id="&lt;Compound Path&gt;" fill-rule="evenodd" class="shp1" d="M38.5 5.42L38.5 34.11L38.5 34.11C38.5 36.63 36.46 38.67 33.94 38.68L5.24 38.68C2.72 38.67 0.68 36.63 0.68 34.11L0.68 5.42C0.68 2.9 2.72 0.86 5.24 0.86L33.94 0.86C36.46 0.86 38.5 2.9 38.5 5.42ZM35.89 14.77C35.89 13.7 35 12.81 33.94 12.81L5.24 12.81C4.18 12.81 3.29 13.7 3.29 14.76L3.29 34.11C3.29 35.18 4.18 36.07 5.24 36.07L33.94 36.07C35 36.07 35.89 35.18 35.89 34.11L35.89 14.77ZM35.89 5.42C35.89 4.35 35 3.47 33.94 3.46L5.24 3.46C4.18 3.47 3.29 4.35 3.29 5.42L3.29 10.65C3.88 10.37 4.54 10.2 5.24 10.2L33.94 10.2C34.64 10.2 35.3 10.37 35.89 10.65L35.89 5.42Z" />
				<path id="&lt;Compound Path&gt;" fill-rule="evenodd" class="shp1" d="M28.37 6.83C28.37 8.45 27.05 9.77 25.43 9.77C23.81 9.77 22.5 8.45 22.5 6.83C22.5 5.21 23.81 3.9 25.43 3.9C27.05 3.9 28.37 5.21 28.37 6.83ZM26.68 6.83C26.68 6.14 26.12 5.59 25.44 5.58C24.74 5.59 24.19 6.14 24.18 6.83C24.19 7.52 24.74 8.08 25.44 8.08C26.12 8.08 26.68 7.52 26.68 6.83Z" />
				<path id="&lt;Compound Path&gt;" fill-rule="evenodd" class="shp1" d="M34.84 6.83C34.83 8.45 33.52 9.77 31.9 9.77C30.28 9.77 28.97 8.45 28.96 6.83C28.97 5.21 30.28 3.9 31.9 3.9C33.52 3.9 34.83 5.21 34.84 6.83ZM33.15 6.83C33.15 6.14 32.59 5.59 31.9 5.58C31.21 5.59 30.66 6.14 30.65 6.83C30.66 7.52 31.21 8.08 31.9 8.08C32.59 8.08 33.15 7.52 33.15 6.83Z" />
			</g>
		</g>
	</g>
</svg>