<svg xmlns="http://www.w3.org/2000/svg" viewBox="0 0 63 73" width="63" height="73">
	<style>
		tspan { white-space:pre }
		.shp0 { fill: #10cab7 } 
	</style>
	<g id="Work">
		<g id="Work 3">
			<path id="Composite Path" class="shp0" d="M44.64 72.87L19.09 72.87C18.31 72.87 17.67 72.23 17.67 71.45L17.67 70.44C17.67 69.66 18.31 69.02 19.09 69.02L29.94 69.02L29.95 62.41C13.22 60.34 0.66 46.15 0.66 29.24C0.67 17.43 6.72 6.73 16.86 0.62L17.15 0.45L17.19 0.43L17.32 0.36C17.56 0.27 17.79 0.22 18.02 0.22C19.09 0.22 19.96 1.09 19.96 2.16C19.96 2.77 19.68 3.33 19.19 3.7L18.82 3.92C17.26 4.87 15.77 5.98 14.38 7.22L17.62 10.46C22.18 6.45 28.02 4.25 34.1 4.25C47.87 4.26 59.08 15.47 59.08 29.24C59.08 35.33 56.89 41.16 52.88 45.72L56.12 48.96C57.36 47.57 58.46 46.09 59.4 44.54L59.47 44.41L59.57 44.26C59.97 43.73 60.53 43.45 61.13 43.45C62.2 43.45 63.07 44.32 63.07 45.39C63.07 45.63 63.02 45.86 62.94 46.09L62.79 46.35L62.67 46.56C56.54 56.65 45.86 62.67 34.1 62.67C33.99 62.67 33.89 62.67 33.79 62.67L33.79 69.02L44.64 69.02C45.42 69.02 46.06 69.66 46.06 70.44L46.06 71.45C46.06 72.23 45.42 72.87 44.64 72.87L44.64 72.87ZM11.68 9.96C7.05 15.33 4.5 22.16 4.51 29.24C4.54 45.53 17.81 58.8 34.1 58.83C41.19 58.83 48.01 56.29 53.38 51.65L50.13 48.4C45.64 52.16 39.96 54.23 34.1 54.23C20.32 54.23 9.11 43.02 9.11 29.24C9.11 23.38 11.17 17.7 14.93 13.21L11.68 9.96L11.68 9.96ZM34.1 8.1C22.46 8.12 12.97 17.6 12.95 29.24C12.97 40.88 22.46 50.37 34.1 50.39C45.74 50.37 55.22 40.88 55.24 29.24C55.22 17.6 45.74 8.12 34.1 8.1L34.1 8.1Z" />
		</g>
	</g>
</svg>