<svg xmlns="http://www.w3.org/2000/svg" viewBox="0 0 71 71" width="71" height="71">
	<style>
		tspan { white-space:pre }
		.shp0 { fill: #10cab7 } 
	</style>
	<g id="Work">
		<g id="Work 1">
			<path id="Composite Path" class="shp0" d="M65.94 65.98L49.14 65.98L56.22 58.91C57.07 59.1 57.94 59.21 58.85 59.21C65.52 59.2 70.92 53.8 70.93 47.13C70.92 40.46 65.52 35.06 58.85 35.05C57.2 35.05 55.63 35.39 54.2 35.98L45.55 27.34L49.26 23.62C51.57 21.1 52.95 17.82 52.95 14.22C52.95 14.15 52.95 14.15 52.95 14.15C52.86 6.34 46.57 0.06 38.84 -0.03C38.85 -0.03 38.79 -0.03 38.69 -0.03C35.1 -0.04 31.8 1.32 29.35 3.58L19.38 13.55L4.21 15.33C3.46 15.43 2.72 15.64 2.03 16.18C1.33 16.69 0.8 17.69 0.82 18.64C0.84 19.86 1.43 20.73 2.1 21.41L31.5 50.81C32.18 51.48 33.06 52.07 34.28 52.09L34.34 52.09C35.28 52.09 36.23 51.56 36.74 50.89C37.27 50.2 37.48 49.45 37.58 48.71L35.38 48.45L37.58 48.7L39.32 33.58L42.42 30.48L50.43 38.49C48.18 40.68 46.77 43.74 46.77 47.13C46.77 51.2 48.79 54.79 51.88 56.98L42.87 65.98L25.4 65.98C24.58 65.98 23.92 66.65 23.92 67.46L23.92 68.94C23.92 69.75 24.58 70.42 25.4 70.42L65.94 70.42C66.75 70.42 67.41 69.75 67.41 68.94L67.41 67.46C67.41 66.65 66.75 65.98 65.94 65.98ZM35.09 31.54L33.38 46.42L6.49 19.53L21.42 17.77L32.42 6.78C34.01 5.32 36.22 4.4 38.69 4.4C38.69 4.4 38.69 4.4 38.74 4.4C44.09 4.45 48.47 8.83 48.51 14.13L48.51 14.22C48.51 16.68 47.59 18.88 46.06 20.54L35.09 31.54ZM58.85 39.49C63.07 39.49 66.49 42.91 66.49 47.13C66.49 51.34 63.07 54.76 58.85 54.77C54.63 54.76 51.22 51.34 51.21 47.13C51.22 42.91 54.63 39.49 58.85 39.49Z" />
		</g>
	</g>
</svg>